<svg xmlns="http://www.w3.org/2000/svg" aria-hidden="true" style="position:absolute;width:0;height:0;overflow:hidden"><defs><symbol id="icon-facebook" viewBox="0 0 32 32"><path d="M19.52 4.64h.96v3.6h-1.2c-.48 0-.96 0-1.2.24s-.24.48-.24 1.04v1.28h2.64v3.04h-2.64v13.2h-4.08V13.76H11.6v-3.04h2.16V9.68c0-1.76.24-3.04.72-3.6.72-1.04 2.16-1.52 4.32-1.52.24.08.48.08.72.08z"/></symbol><symbol id="icon-instagram" viewBox="0 0 32 32"><path d="M28.718 10.756a9.264 9.264 0 0 0-.596-3.145 6.547 6.547 0 0 0-3.743-3.737 9.42 9.42 0 0 0-3.108-.596c-1.367-.061-1.801-.078-5.273-.078s-3.916 0-5.274.078a9.418 9.418 0 0 0-3.106.596 6.541 6.541 0 0 0-3.743 3.737 9.288 9.288 0 0 0-.596 3.101c-.061 1.367-.08 1.8-.08 5.265s0 3.909.08 5.265a9.335 9.335 0 0 0 .596 3.104 6.548 6.548 0 0 0 3.744 3.735 9.37 9.37 0 0 0 3.106.639c1.369.061 1.803.079 5.274.079s3.917 0 5.274-.079a9.362 9.362 0 0 0 3.108-.595 6.555 6.555 0 0 0 3.743-3.737 9.346 9.346 0 0 0 .596-3.104c.061-1.365.08-1.798.08-5.265-.003-3.466-.003-3.906-.082-5.264zM15.99 22.531c-3.631 0-6.572-2.936-6.572-6.561s2.941-6.561 6.572-6.561c3.628 0 6.572 2.936 6.572 6.561s-2.944 6.561-6.572 6.561zm6.834-11.835a1.53 1.53 0 1 1 0-3.06 1.53 1.53 0 1 1 0 3.06z"/><path d="M15.992 19.976a4.004 4.004 0 1 0 0-8.009 4.004 4.004 0 0 0 0 8.009z"/></symbol><symbol id="icon-twitter" viewBox="0 0 32 32"><path d="M29.333 7.898c-.992.435-2.048.723-3.15.863a5.44 5.44 0 0 0 2.405-3.022 10.916 10.916 0 0 1-3.467 1.323 5.465 5.465 0 0 0-9.456 3.738c0 .433.037.85.127 1.247-4.545-.222-8.567-2.4-11.268-5.718a5.5 5.5 0 0 0-.748 2.763c0 1.893.975 3.572 2.428 4.543a5.412 5.412 0 0 1-2.47-.673v.06a5.493 5.493 0 0 0 4.38 5.372c-.445.122-.93.18-1.433.18-.35 0-.703-.02-1.035-.093.708 2.165 2.718 3.757 5.108 3.808a10.985 10.985 0 0 1-6.778 2.332c-.448 0-.878-.02-1.308-.075a15.39 15.39 0 0 0 8.387 2.453c10.06 0 15.56-8.333 15.56-15.557 0-.242-.008-.475-.02-.707a10.91 10.91 0 0 0 2.74-2.838z"/></symbol><symbol id="icon-logo" viewBox="0 0 32 32"><path stroke-linecap="round" stroke-linejoin="round" stroke-width="2.783" d="M21.951 23.702 7.792 14.855m4.104-6.732 14.159 8.847m-15.287 9.04L23.08 5.815m4.685 8.351c-3.034-1.896-4.209-3.405-2.157-6.771L16 1.391 3.688 21.586l14.159 8.847 9.918-16.268z"/></symbol><symbol id="icon-scroll-down" viewBox="0 0 32 32"><path d="M17.488 18.934a2.082 2.082 0 0 1-2.294.459 2.077 2.077 0 0 1-.682-.459L4.916 9.317a2.108 2.108 0 0 0-1.488-.62 2.104 2.104 0 0 0-1.488.62 2.097 2.097 0 0 0 0 2.954l9.617 9.617a6.286 6.286 0 0 0 8.884 0l9.617-9.617a2.099 2.099 0 0 0-1.488-3.574 2.104 2.104 0 0 0-1.488.62l-9.596 9.617z"/></symbol></defs></svg>